<mxfile host="Electron" agent="Mozilla/5.0 (Windows NT 10.0; Win64; x64) AppleWebKit/537.36 (KHTML, like Gecko) draw.io/24.7.17 Chrome/128.0.6613.36 Electron/32.0.1 Safari/537.36" version="24.7.17">
  <diagram name="Page-1" id="2YBvvXClWsGukQMizWep">
    <mxGraphModel dx="819" dy="482" grid="1" gridSize="10" guides="1" tooltips="1" connect="1" arrows="1" fold="1" page="1" pageScale="1" pageWidth="850" pageHeight="1100" math="0" shadow="0">
      <root>
        <mxCell id="0" />
        <mxCell id="1" parent="0" />
        <mxCell id="9TK_nHoFdWv4JgCzW87S-3" value="camara" style="html=1;whiteSpace=wrap;" vertex="1" parent="1">
          <mxGeometry x="40" y="40" width="120" height="40" as="geometry" />
        </mxCell>
        <mxCell id="9TK_nHoFdWv4JgCzW87S-4" value="sistema" style="html=1;whiteSpace=wrap;" vertex="1" parent="1">
          <mxGeometry x="200" y="40" width="120" height="40" as="geometry" />
        </mxCell>
        <mxCell id="9TK_nHoFdWv4JgCzW87S-5" value="API" style="html=1;whiteSpace=wrap;" vertex="1" parent="1">
          <mxGeometry x="360" y="40" width="120" height="40" as="geometry" />
        </mxCell>
        <mxCell id="9TK_nHoFdWv4JgCzW87S-6" value="impresora" style="html=1;whiteSpace=wrap;" vertex="1" parent="1">
          <mxGeometry x="680" y="40" width="120" height="40" as="geometry" />
        </mxCell>
        <mxCell id="9TK_nHoFdWv4JgCzW87S-7" value="mail" style="html=1;whiteSpace=wrap;" vertex="1" parent="1">
          <mxGeometry x="520" y="40" width="120" height="40" as="geometry" />
        </mxCell>
        <mxCell id="9TK_nHoFdWv4JgCzW87S-8" value="" style="endArrow=none;dashed=1;html=1;rounded=0;" edge="1" parent="1">
          <mxGeometry width="50" height="50" relative="1" as="geometry">
            <mxPoint x="100" y="460" as="sourcePoint" />
            <mxPoint x="100" y="80" as="targetPoint" />
          </mxGeometry>
        </mxCell>
        <mxCell id="9TK_nHoFdWv4JgCzW87S-9" value="" style="endArrow=none;dashed=1;html=1;rounded=0;" edge="1" parent="1" source="9TK_nHoFdWv4JgCzW87S-17">
          <mxGeometry width="50" height="50" relative="1" as="geometry">
            <mxPoint x="259.58000000000004" y="440" as="sourcePoint" />
            <mxPoint x="259.58000000000004" y="80" as="targetPoint" />
          </mxGeometry>
        </mxCell>
        <mxCell id="9TK_nHoFdWv4JgCzW87S-10" value="" style="endArrow=none;dashed=1;html=1;rounded=0;" edge="1" parent="1" source="9TK_nHoFdWv4JgCzW87S-26">
          <mxGeometry width="50" height="50" relative="1" as="geometry">
            <mxPoint x="419.58" y="440" as="sourcePoint" />
            <mxPoint x="419.58" y="80" as="targetPoint" />
          </mxGeometry>
        </mxCell>
        <mxCell id="9TK_nHoFdWv4JgCzW87S-11" value="" style="endArrow=none;dashed=1;html=1;rounded=0;" edge="1" parent="1" source="9TK_nHoFdWv4JgCzW87S-30">
          <mxGeometry width="50" height="50" relative="1" as="geometry">
            <mxPoint x="739.5799999999999" y="440" as="sourcePoint" />
            <mxPoint x="739.5799999999999" y="80" as="targetPoint" />
          </mxGeometry>
        </mxCell>
        <mxCell id="9TK_nHoFdWv4JgCzW87S-12" value="" style="endArrow=none;dashed=1;html=1;rounded=0;" edge="1" parent="1">
          <mxGeometry width="50" height="50" relative="1" as="geometry">
            <mxPoint x="580" y="460" as="sourcePoint" />
            <mxPoint x="579.9999999999999" y="80" as="targetPoint" />
          </mxGeometry>
        </mxCell>
        <mxCell id="9TK_nHoFdWv4JgCzW87S-13" value="enviarDatos()" style="html=1;verticalAlign=bottom;endArrow=block;curved=0;rounded=0;entryX=0;entryY=0;entryDx=0;entryDy=5;" edge="1" parent="1" target="9TK_nHoFdWv4JgCzW87S-17">
          <mxGeometry relative="1" as="geometry">
            <mxPoint x="100" y="105" as="sourcePoint" />
          </mxGeometry>
        </mxCell>
        <mxCell id="9TK_nHoFdWv4JgCzW87S-14" value="" style="endArrow=none;dashed=1;html=1;rounded=0;" edge="1" parent="1" target="9TK_nHoFdWv4JgCzW87S-17">
          <mxGeometry width="50" height="50" relative="1" as="geometry">
            <mxPoint x="260" y="460" as="sourcePoint" />
            <mxPoint x="259.58000000000004" y="80" as="targetPoint" />
          </mxGeometry>
        </mxCell>
        <mxCell id="9TK_nHoFdWv4JgCzW87S-15" style="edgeStyle=orthogonalEdgeStyle;rounded=0;orthogonalLoop=1;jettySize=auto;html=1;curved=0;exitX=0;exitY=1;exitDx=0;exitDy=-5;exitPerimeter=0;dashed=1;endArrow=open;endFill=0;" edge="1" parent="1" source="9TK_nHoFdWv4JgCzW87S-17">
          <mxGeometry relative="1" as="geometry">
            <mxPoint x="100" y="415" as="targetPoint" />
          </mxGeometry>
        </mxCell>
        <mxCell id="9TK_nHoFdWv4JgCzW87S-16" value="&amp;lt;&amp;lt;null&amp;gt;&amp;gt;" style="edgeLabel;html=1;align=center;verticalAlign=middle;resizable=0;points=[];" vertex="1" connectable="0" parent="9TK_nHoFdWv4JgCzW87S-15">
          <mxGeometry x="-0.0011" y="3" relative="1" as="geometry">
            <mxPoint x="2" y="-9" as="offset" />
          </mxGeometry>
        </mxCell>
        <mxCell id="9TK_nHoFdWv4JgCzW87S-17" value="" style="html=1;points=[[0,0,0,0,5],[0,1,0,0,-5],[1,0,0,0,5],[1,1,0,0,-5]];perimeter=orthogonalPerimeter;outlineConnect=0;targetShapes=umlLifeline;portConstraint=eastwest;newEdgeStyle={&quot;curved&quot;:0,&quot;rounded&quot;:0};" vertex="1" parent="1">
          <mxGeometry x="255" y="100" width="10" height="320" as="geometry" />
        </mxCell>
        <mxCell id="9TK_nHoFdWv4JgCzW87S-18" value="registraDatos()" style="html=1;verticalAlign=bottom;endArrow=block;curved=0;rounded=0;entryX=0;entryY=0;entryDx=0;entryDy=5;" edge="1" parent="1" source="9TK_nHoFdWv4JgCzW87S-17" target="9TK_nHoFdWv4JgCzW87S-26">
          <mxGeometry relative="1" as="geometry">
            <mxPoint x="340" y="125" as="sourcePoint" />
          </mxGeometry>
        </mxCell>
        <mxCell id="9TK_nHoFdWv4JgCzW87S-19" value="" style="html=1;verticalAlign=bottom;endArrow=open;dashed=1;endSize=8;curved=0;rounded=0;exitX=0;exitY=1;exitDx=0;exitDy=-5;" edge="1" parent="1" source="9TK_nHoFdWv4JgCzW87S-26" target="9TK_nHoFdWv4JgCzW87S-17">
          <mxGeometry relative="1" as="geometry">
            <mxPoint x="340" y="195" as="targetPoint" />
          </mxGeometry>
        </mxCell>
        <mxCell id="9TK_nHoFdWv4JgCzW87S-20" value="&amp;lt;&amp;lt;null&amp;gt;&amp;gt;" style="edgeLabel;html=1;align=center;verticalAlign=middle;resizable=0;points=[];" vertex="1" connectable="0" parent="9TK_nHoFdWv4JgCzW87S-19">
          <mxGeometry x="-0.1186" relative="1" as="geometry">
            <mxPoint as="offset" />
          </mxGeometry>
        </mxCell>
        <mxCell id="9TK_nHoFdWv4JgCzW87S-21" value="" style="html=1;points=[[0,0,0,0,5],[0,1,0,0,-5],[1,0,0,0,5],[1,1,0,0,-5]];perimeter=orthogonalPerimeter;outlineConnect=0;targetShapes=umlLifeline;portConstraint=eastwest;newEdgeStyle={&quot;curved&quot;:0,&quot;rounded&quot;:0};" vertex="1" parent="1">
          <mxGeometry x="575" y="200" width="10" height="100" as="geometry" />
        </mxCell>
        <mxCell id="9TK_nHoFdWv4JgCzW87S-22" value="enviarCorreo()" style="html=1;verticalAlign=bottom;endArrow=block;curved=0;rounded=0;entryX=0;entryY=0;entryDx=0;entryDy=5;" edge="1" parent="1" source="9TK_nHoFdWv4JgCzW87S-17" target="9TK_nHoFdWv4JgCzW87S-21">
          <mxGeometry relative="1" as="geometry">
            <mxPoint x="270" y="195" as="sourcePoint" />
          </mxGeometry>
        </mxCell>
        <mxCell id="9TK_nHoFdWv4JgCzW87S-23" value="" style="html=1;verticalAlign=bottom;endArrow=open;dashed=1;endSize=8;curved=0;rounded=0;exitX=0;exitY=1;exitDx=0;exitDy=-5;" edge="1" parent="1" source="9TK_nHoFdWv4JgCzW87S-21" target="9TK_nHoFdWv4JgCzW87S-17">
          <mxGeometry relative="1" as="geometry">
            <mxPoint x="500" y="210" as="targetPoint" />
          </mxGeometry>
        </mxCell>
        <mxCell id="9TK_nHoFdWv4JgCzW87S-24" value="&amp;lt;&amp;lt;alerta@ciudad&amp;gt;&amp;gt;" style="edgeLabel;html=1;align=center;verticalAlign=middle;resizable=0;points=[];" vertex="1" connectable="0" parent="9TK_nHoFdWv4JgCzW87S-23">
          <mxGeometry x="0.043" y="-1" relative="1" as="geometry">
            <mxPoint y="1" as="offset" />
          </mxGeometry>
        </mxCell>
        <mxCell id="9TK_nHoFdWv4JgCzW87S-25" value="" style="endArrow=none;dashed=1;html=1;rounded=0;" edge="1" parent="1" target="9TK_nHoFdWv4JgCzW87S-26">
          <mxGeometry width="50" height="50" relative="1" as="geometry">
            <mxPoint x="420" y="460" as="sourcePoint" />
            <mxPoint x="419.58" y="80" as="targetPoint" />
          </mxGeometry>
        </mxCell>
        <mxCell id="9TK_nHoFdWv4JgCzW87S-26" value="" style="html=1;points=[[0,0,0,0,5],[0,1,0,0,-5],[1,0,0,0,5],[1,1,0,0,-5]];perimeter=orthogonalPerimeter;outlineConnect=0;targetShapes=umlLifeline;portConstraint=eastwest;newEdgeStyle={&quot;curved&quot;:0,&quot;rounded&quot;:0};" vertex="1" parent="1">
          <mxGeometry x="414" y="120" width="10" height="40" as="geometry" />
        </mxCell>
        <mxCell id="9TK_nHoFdWv4JgCzW87S-27" value="enviarDatosImp()" style="html=1;verticalAlign=bottom;endArrow=block;curved=0;rounded=0;entryX=0;entryY=0;entryDx=0;entryDy=5;" edge="1" parent="1" target="9TK_nHoFdWv4JgCzW87S-30">
          <mxGeometry relative="1" as="geometry">
            <mxPoint x="265" y="364" as="sourcePoint" />
          </mxGeometry>
        </mxCell>
        <mxCell id="9TK_nHoFdWv4JgCzW87S-28" value="&amp;lt;&amp;lt;null&amp;gt;&amp;gt;" style="html=1;verticalAlign=bottom;endArrow=open;dashed=1;endSize=8;curved=0;rounded=0;exitX=0;exitY=1;exitDx=0;exitDy=-5;" edge="1" parent="1" source="9TK_nHoFdWv4JgCzW87S-30">
          <mxGeometry y="-5" relative="1" as="geometry">
            <mxPoint x="265" y="394" as="targetPoint" />
            <mxPoint as="offset" />
          </mxGeometry>
        </mxCell>
        <mxCell id="9TK_nHoFdWv4JgCzW87S-29" value="" style="endArrow=none;dashed=1;html=1;rounded=0;" edge="1" parent="1" target="9TK_nHoFdWv4JgCzW87S-30">
          <mxGeometry width="50" height="50" relative="1" as="geometry">
            <mxPoint x="740" y="460" as="sourcePoint" />
            <mxPoint x="739.5799999999999" y="80" as="targetPoint" />
          </mxGeometry>
        </mxCell>
        <mxCell id="9TK_nHoFdWv4JgCzW87S-30" value="" style="html=1;points=[[0,0,0,0,5],[0,1,0,0,-5],[1,0,0,0,5],[1,1,0,0,-5]];perimeter=orthogonalPerimeter;outlineConnect=0;targetShapes=umlLifeline;portConstraint=eastwest;newEdgeStyle={&quot;curved&quot;:0,&quot;rounded&quot;:0};" vertex="1" parent="1">
          <mxGeometry x="735" y="360" width="10" height="40" as="geometry" />
        </mxCell>
        <mxCell id="9TK_nHoFdWv4JgCzW87S-31" value="&lt;font style=&quot;font-size: 9px;&quot;&gt;[si la velocidad es mayor 70km/h]&lt;/font&gt;" style="text;html=1;align=center;verticalAlign=middle;resizable=0;points=[];autosize=1;strokeColor=none;fillColor=none;" vertex="1" parent="1">
          <mxGeometry x="255" y="170" width="160" height="30" as="geometry" />
        </mxCell>
        <mxCell id="9TK_nHoFdWv4JgCzW87S-32" value="alt" style="shape=umlFrame;whiteSpace=wrap;html=1;pointerEvents=0;width=40;height=15;" vertex="1" parent="1">
          <mxGeometry x="210" y="175" width="560" height="265" as="geometry" />
        </mxCell>
        <mxCell id="9TK_nHoFdWv4JgCzW87S-33" value="" style="endArrow=none;dashed=1;html=1;rounded=0;" edge="1" parent="1">
          <mxGeometry width="50" height="50" relative="1" as="geometry">
            <mxPoint x="210" y="250" as="sourcePoint" />
            <mxPoint x="771" y="250" as="targetPoint" />
          </mxGeometry>
        </mxCell>
        <mxCell id="9TK_nHoFdWv4JgCzW87S-34" value="" style="html=1;verticalAlign=bottom;endArrow=open;dashed=1;endSize=8;curved=0;rounded=0;exitX=0;exitY=1;exitDx=0;exitDy=-5;" edge="1" parent="1">
          <mxGeometry relative="1" as="geometry">
            <mxPoint x="265" y="230" as="targetPoint" />
            <mxPoint x="575" y="230" as="sourcePoint" />
          </mxGeometry>
        </mxCell>
        <mxCell id="9TK_nHoFdWv4JgCzW87S-35" value="&amp;lt;&amp;lt;avisos@ciudad&amp;gt;&amp;gt;" style="edgeLabel;html=1;align=center;verticalAlign=middle;resizable=0;points=[];" vertex="1" connectable="0" parent="9TK_nHoFdWv4JgCzW87S-34">
          <mxGeometry x="0.043" y="-1" relative="1" as="geometry">
            <mxPoint y="1" as="offset" />
          </mxGeometry>
        </mxCell>
        <mxCell id="9TK_nHoFdWv4JgCzW87S-37" value="&lt;font size=&quot;1&quot;&gt;loop&lt;/font&gt;" style="shape=umlFrame;whiteSpace=wrap;html=1;pointerEvents=0;width=30;height=15;" vertex="1" parent="1">
          <mxGeometry x="220" y="330" width="540" height="100" as="geometry" />
        </mxCell>
        <mxCell id="9TK_nHoFdWv4JgCzW87S-38" value="&lt;font size=&quot;1&quot;&gt;[3 veces]&lt;/font&gt;" style="text;html=1;align=left;verticalAlign=middle;resizable=0;points=[];autosize=1;strokeColor=none;fillColor=none;" vertex="1" parent="1">
          <mxGeometry x="270" y="330" width="60" height="30" as="geometry" />
        </mxCell>
        <mxCell id="9TK_nHoFdWv4JgCzW87S-39" value="&lt;span style=&quot;color: rgb(0, 0, 0); font-family: Helvetica; font-size: 9px; font-style: normal; font-variant-ligatures: normal; font-variant-caps: normal; font-weight: 400; letter-spacing: normal; orphans: 2; text-align: center; text-indent: 0px; text-transform: none; widows: 2; word-spacing: 0px; -webkit-text-stroke-width: 0px; white-space: nowrap; background-color: rgb(251, 251, 251); text-decoration-thickness: initial; text-decoration-style: initial; text-decoration-color: initial; display: inline !important; float: none;&quot;&gt;[si la velocidad es mayor 100km/h]&lt;/span&gt;" style="text;whiteSpace=wrap;html=1;" vertex="1" parent="1">
          <mxGeometry x="270" y="250" width="170" height="40" as="geometry" />
        </mxCell>
      </root>
    </mxGraphModel>
  </diagram>
</mxfile>
